<svg xmlns="http://www.w3.org/2000/svg" height="512pt" version="1.1" viewBox="-53 0 512 512" width="512pt">
<g id="surface1">
<path d="M 239.179688 308.4375 C 252.90625 294.710938 261.441406 275.789062 261.441406 254.886719 C 261.441406 213.085938 227.433594 179.199219 185.507812 179.199219 C 143.582031 179.199219 109.574219 213.085938 109.574219 254.886719 C 109.574219 296.6875 143.582031 330.574219 185.507812 330.574219 C 206.53125 330.449219 225.453125 322.039062 239.179688 308.4375 Z M 392.78125 144.820312 L 392.78125 444.847656 C 392.78125 474.898438 368.417969 499.261719 338.367188 499.261719 L 67.277344 499.261719 C 37.226562 499.261719 12.863281 474.898438 12.863281 444.847656 L 12.863281 67.152344 C 12.863281 37.101562 37.226562 12.738281 67.277344 12.738281 L 267.007812 12.738281 L 267.007812 102.894531 C 267.007812 126.144531 285.804688 144.941406 309.054688 144.941406 L 392.78125 144.941406 Z M 392.78125 144.820312 " style=" stroke:none;fill-rule:nonzero;fill:rgb(0%,67.45098%,91.764706%);fill-opacity:1;" />
<path d="M 267.007812 12.738281 L 392.78125 144.945312 L 309.054688 144.945312 C 285.804688 144.945312 267.007812 126.144531 267.007812 102.894531 Z M 267.007812 12.738281 " style=" stroke:none;fill-rule:nonzero;fill:rgb(0%,93.72549%,81.960784%);fill-opacity:1;" />
<path d="M 239.179688 308.4375 C 225.453125 322.039062 206.53125 330.574219 185.632812 330.574219 C 143.707031 330.574219 109.695312 296.6875 109.695312 254.886719 C 109.695312 213.085938 143.707031 179.199219 185.632812 179.199219 C 227.554688 179.199219 261.566406 213.085938 261.566406 254.886719 C 261.441406 275.789062 252.90625 294.710938 239.179688 308.4375 Z M 239.179688 308.4375 " style=" stroke:none;fill-rule:nonzero;fill:rgb(0%,67.45098%,91.764706%);fill-opacity:1;" />
<path d="M 275.910156 3.957031 C 273.5625 1.484375 270.347656 0 267.007812 0 L 67.277344 0 C 30.421875 0 0 30.300781 0 67.152344 L 0 444.847656 C 0 481.699219 30.421875 512 67.277344 512 L 338.367188 512 C 375.21875 512 405.640625 481.699219 405.640625 444.847656 L 405.640625 144.820312 C 405.640625 141.605469 404.15625 138.511719 402.054688 136.164062 Z M 279.5 43.65625 L 363.964844 132.328125 L 309.054688 132.328125 C 292.730469 132.328125 279.5 119.21875 279.5 102.769531 Z M 338.367188 487.265625 L 67.277344 487.265625 C 44.152344 487.265625 24.734375 468.097656 24.734375 444.847656 L 24.734375 67.152344 C 24.734375 44.027344 44.027344 24.734375 67.277344 24.734375 L 254.765625 24.734375 L 254.765625 102.769531 C 254.765625 132.824219 279.003906 157.0625 309.054688 157.0625 L 380.910156 157.0625 L 380.910156 444.847656 C 380.910156 468.097656 361.617188 487.265625 338.367188 487.265625 Z M 338.367188 487.265625 " style=" stroke:none;fill-rule:nonzero;fill:rgb(3.137255%,21.960784%,38.823529%);fill-opacity:1;" />
<path d="M 304.601562 401.933594 L 101.039062 401.933594 C 94.238281 401.933594 88.671875 407.496094 88.671875 414.300781 C 88.671875 421.101562 94.238281 426.667969 101.039062 426.667969 L 304.726562 426.667969 C 311.527344 426.667969 317.09375 421.101562 317.09375 414.300781 C 317.09375 407.496094 311.527344 401.933594 304.601562 401.933594 Z M 304.601562 401.933594 " style=" stroke:none;fill-rule:nonzero;fill:rgb(3.137255%,21.960784%,38.823529%);fill-opacity:1;" />
<path d="M 185.632812 342.816406 C 205.046875 342.816406 223.476562 336.632812 238.5625 325.132812 L 274.921875 361.367188 C 277.394531 363.71875 280.488281 364.953125 283.703125 364.953125 C 286.917969 364.953125 290.011719 363.71875 292.484375 361.367188 C 297.308594 356.542969 297.308594 348.753906 292.484375 343.929688 L 256.25 307.816406 C 267.75 292.605469 274.058594 274.179688 274.058594 254.886719 C 274.058594 206.285156 234.484375 166.832031 185.753906 166.832031 C 137.027344 166.832031 97.453125 206.285156 97.453125 254.886719 C 97.328125 303.367188 136.90625 342.816406 185.632812 342.816406 Z M 185.632812 191.441406 C 220.628906 191.441406 249.199219 219.886719 249.199219 254.761719 C 249.199219 271.582031 242.644531 287.414062 230.769531 299.285156 C 230.648438 299.410156 230.523438 299.410156 230.523438 299.53125 C 230.398438 299.65625 230.398438 299.65625 230.277344 299.78125 C 218.277344 311.527344 202.449219 318.085938 185.628906 318.085938 C 150.632812 318.085938 122.0625 289.640625 122.0625 254.765625 C 122.0625 219.886719 150.507812 191.441406 185.632812 191.441406 Z M 185.632812 191.441406 " style=" stroke:none;fill-rule:nonzero;fill:rgb(3.137255%,21.960784%,38.823529%);fill-opacity:1;" />
</g>
</svg>