<svg height="468pt" viewBox="0 0 468 468.00016" width="468pt" xmlns="http://www.w3.org/2000/svg"><path d="m310.898438 313.878906c-40.234376-19.882812-63.035157-63.464844-56.421876-107.855468 6.609376-44.390626 41.121094-79.4375 85.402344-86.730469 44.285156-7.296875 88.214844 14.828125 108.714844 54.75 20.5 39.925781 12.886719 88.519531-18.84375 120.257812-31.375 31.230469-79.117188 39.09375-118.851562 19.578125zm99.960937-38.46875c29.96875-29.921875 29.996094-78.476562.066406-108.433594-29.929687-29.960937-78.480469-29.976562-108.433593-.039062-29.953126 29.9375-29.957032 78.488281-.011719 108.433594 29.914062 29.945312 78.445312 29.964844 108.378906.039062zm0 0" fill="#fedb41"/><path d="m410.820312 167.039062c29.878907 29.9375 29.839844 78.421876-.085937 108.3125-29.925781 29.890626-78.410156 29.867188-108.308594-.050781-29.898437-29.914062-29.894531-78.402343.015625-108.3125 29.9375-29.921875 78.46875-29.898437 108.378906.050781zm0 0" fill="#00acea"/><path d="m376.699219 354.078125v85.820313c.011719 5.332031-2.101563 10.449218-5.871094 14.222656-3.769531 3.769531-8.886719 5.886718-14.21875 5.878906h-.238281c-10.519532-.132812-19.160156-8.351562-19.820313-18.851562 0-.429688-.039062-.820313-.039062-1.25v-85.820313zm0 0" fill="#00efd1"/><path d="m312 127.5.171875.359375c-35.710937 17.078125-58.542969 53.03125-58.8125 92.613281-.273437 39.582032 22.070313 75.84375 57.539063 93.40625-2.359376 12.054688-8.664063 22.976563-17.917969 31.050782-9.234375 8.0625-21.078125 12.507812-33.339844 12.511718-1.242187 0-2.480469-.050781-3.699219-.140625-27.03125-1.972656-48.671875-25.429687-48.671875-54.671875v-16h-137.640625v-.488281l1.859375-239.339844h240.511719zm0 0" fill="#00efd1"/><path d="m255.941406 357.300781-.011718.140625h-195.558594c-29.199219 0-52.371094-24.742187-52.371094-54.8125v-16h199.269531v16c0 29.242188 21.640625 52.699219 48.671875 54.671875zm0 0" fill="#00acea"/><g fill="#083863"><path d="m110.421875 121h71.828125c4.417969 0 8-3.582031 8-8s-3.582031-8-8-8h-71.828125c-4.421875 0-8 3.582031-8 8s3.578125 8 8 8zm0 0"/><path d="m357 109.863281v-101.863281c.015625-2.113281-.8125-4.148438-2.300781-5.648438-1.488281-1.503906-3.515625-2.34765575-5.628907-2.351562h-240.511718c-4.417969 0-8 3.582031-8 8s3.582031 8 8 8h232.441406v94.933594c-7.144531 1.019531-14.175781 2.71875-21 5.078125v-69.210938c-.007812-2.101562-.859375-4.113281-2.363281-5.578125-1.503907-1.46875-3.535157-2.269531-5.636719-2.222656h-240.511719c-4.410156.039062-7.96875 3.613281-8 8.023438l-1.800781 231.976562h-53.6875c-2.082031-.082031-4.109375.683594-5.617188 2.121094-1.507812 1.4375-2.367187 3.425781-2.382812 5.507812v16c0 33.664063 26 61.21875 58 62.738282v-.367188h198v.3125c1 .078125 2.476562.128906 3.675781.128906 14.171875-.03125 27.859375-5.167968 38.558594-14.460937 8.109375-7.03125 14.308594-16 18.011719-26.074219 10.484375 4.09375 21.527344 6.582031 32.753906 7.382812v13.710938h-12.488281c-4.417969 0-7.511719 3.660156-7.511719 8.078125v85.820313c0 .351562-.230469.683593-.214844 1.015624l-.113281.234376c0 .144531-.058594.289062-.046875.433593.914062 14.707031 13.011719 26.222657 27.746094 26.417969h.304687c15.578125.050781 28.253907-12.523438 28.324219-28.101562v-85.820313c-.132812-4.488281-3.808594-8.0625-8.300781-8.078125h-11.699219v-13.699219c59.632812-4.503906 105.0625-55.296875 102.914062-115.0625-2.148437-59.765625-51.113281-107.164062-110.914062-107.371093zm12 329.980469c-.015625 3.257812-1.335938 6.375-3.664062 8.660156-2.324219 2.28125-5.464844 3.539063-8.726563 3.496094h-.238281c-6.203125-.164062-11.289063-4.957031-11.824219-11.136719-.003906-.246093-.015625-.527343-.027344-.769531l-.007812-78.09375h24.488281zm-353-137.214844v-7.628906h183v7.628906c-.0625 17.660156 7.378906 34.519532 20.472656 46.371094h-159.101562c-24.472656 0-44.371094-20.558594-44.371094-46.371094zm271.746094 36.25c-7.769532 6.828125-17.761719 10.582032-28.105469 10.5625-.992187 0-2.175781-.042968-3.253906-.121094-23.132813-1.683593-41.386719-22.195312-41.386719-46.691406v-16c.046875-2.054687-.757812-4.039062-2.21875-5.480468-1.464844-1.445313-3.457031-2.222657-5.511719-2.148438h-129.582031l1.742188-224h224.570312v68.039062c-16.960938 9.085938-31.261719 22.433594-41.5 38.722657-1.527344-1.78125-3.765625-2.792969-6.109375-2.761719h-145.96875c-4.421875 0-8 3.582031-8 8s3.578125 8 8 8h144.964844c-6.039063 13.210938-9.417969 27.484375-9.949219 42h-135.015625c-4.421875 0-8 3.582031-8 8s3.578125 8 8 8h135.570313c3.785156 35.605469 24.46875 67.214844 55.582031 84.941406-2.636719 8.097656-7.414063 15.332032-13.828125 20.9375zm136.347656-50.234375c-29.796875 29.910157-75.707031 36.6875-112.875 16.660157-37.167969-20.027344-56.753906-62.101563-48.152344-103.4375 8.597656-41.332032 43.339844-72.105469 85.410156-75.648438.203126.015625.394532.03125.59375.03125.601563 0 1.199219-.070312 1.785157-.207031 1.914062-.113281 3.828125-.1875 5.734375-.1875 38.574218-.011719 73.359375 23.210937 88.132812 58.84375 14.777344 35.632812 6.632813 76.65625-20.632812 103.945312zm0 0"/><path d="m296.78125 161.332031c-24.175781 24.253907-31.390625 60.667969-18.289062 92.308594 13.097656 31.636719 43.941406 52.292969 78.1875 52.359375h.03125c38.308593-.050781 71.816406-25.808594 81.714843-62.816406 9.894531-37.007813-6.277343-76.050782-39.445312-95.21875-33.171875-19.167969-75.074219-13.6875-102.199219 13.367187zm108.417969 108.503907c-12.820313 12.925781-30.28125 20.1875-48.488281 20.164062h-.027344c-32.785156.054688-61.039063-23.0625-67.480469-55.210938-6.441406-32.144531 10.722656-64.363281 41-76.949218 30.273437-12.582032 65.21875-2.023438 83.464844 25.21875 18.242187 27.238281 14.695312 63.574218-8.46875 86.777344zm0 0"/></g></svg>